<?xml version="1.0" standalone="no"?>
<!DOCTYPE svg PUBLIC "-//W3C//DTD SVG 20010904//EN"
        "http://www.w3.org/TR/2001/REC-SVG-20010904/DTD/svg10.dtd">
<svg version="1.0" xmlns="http://www.w3.org/2000/svg"
     width="128.000000pt" height="128.000000pt" viewBox="0 0 128.000000 128.000000"
     preserveAspectRatio="xMidYMid meet">
    <metadata>
        Created by potrace 1.14, written by Peter Selinger 2001-2017
    </metadata>
    <g transform="translate(0.000000,128.000000) scale(0.100000,-0.100000)"
       fill="#000000" stroke="none">
        <path d="M528 1272 c-43 -11 -88 -37 -84 -48 3 -9 -7 -15 -32 -20 -61 -10 -68
-13 -81 -38 -7 -13 -23 -28 -35 -34 -36 -16 -102 -112 -115 -167 -19 -81 -15
-194 11 -290 7 -28 7 -40 -1 -43 -16 -5 -13 -70 5 -117 9 -22 25 -69 36 -104
22 -70 37 -91 65 -91 11 0 27 -17 43 -47 38 -73 134 -161 236 -218 l89 -50 95
0 c118 0 130 7 214 129 87 125 91 141 101 380 4 77 10 147 16 157 11 21 14
262 4 339 -4 30 -12 60 -17 67 -5 7 -7 17 -3 22 3 6 -8 19 -26 30 -17 11 -40
32 -50 48 -10 15 -19 25 -19 21 0 -4 -24 4 -52 17 -29 13 -80 26 -113 30 -33
4 -66 12 -74 18 -13 11 -179 17 -213 9z"/>
    </g>
</svg>
